<svg width="96" height="24" viewBox="0 0 96 24" fill="none" xmlns="http://www.w3.org/2000/svg">
<path d="M84.7468 24C83.7816 24.0003 82.8332 23.7456 81.9959 23.2613L76.4629 20.0482C75.6236 19.56 74.9269 18.8571 74.443 18.0104C73.9591 17.1637 73.7052 16.2033 73.7068 15.2259V8.77857C73.7062 7.80081 73.9612 6.84019 74.446 5.99355C74.9308 5.14692 75.6282 4.4442 76.4681 3.95625L81.9907 0.737853C82.8292 0.254334 83.7783 0 84.7442 0C85.71 0 86.6591 0.254334 87.4976 0.737853L93.0307 3.95625C93.871 4.44321 94.5686 5.14586 95.0527 5.99282C95.5367 6.83979 95.79 7.8009 95.7868 8.77857V15.2206C95.7877 16.1992 95.533 17.1607 95.0482 18.0082C94.5634 18.8558 93.8657 19.5594 93.0255 20.0482L87.5028 23.2666C86.6629 23.7483 85.713 24.0011 84.7468 24ZM84.7468 3.24926C84.3449 3.24741 83.9497 3.353 83.6015 3.55527L78.0736 6.77366C77.7255 6.97705 77.4368 7.26954 77.2366 7.62157C77.0364 7.97361 76.9319 8.37272 76.9335 8.77857V15.2206C76.9331 15.6282 77.0392 16.0287 77.2412 16.3816C77.4432 16.7346 77.734 17.0275 78.0841 17.2308L83.6015 20.4439C83.9513 20.6447 84.3469 20.7502 84.7494 20.7502C85.1519 20.7502 85.5475 20.6447 85.8973 20.4439L91.4199 17.2308C91.7683 17.0273 92.0575 16.7349 92.2585 16.383C92.4596 16.0311 92.5653 15.6321 92.5652 15.2259V8.77857C92.5652 8.37048 92.4583 7.96966 92.2553 7.61666C92.0524 7.26367 91.7606 6.97103 91.4095 6.76839L85.8921 3.55527C85.5438 3.353 85.1486 3.24741 84.7468 3.24926Z" fill="#DF3856"/>
<path d="M54.9299 11.7743V14.7481C54.5124 14.9353 54.0545 15.0215 53.5953 14.9993C52.5403 14.9993 52.0128 14.3533 52.0128 12.8664V11.7589C52.0109 11.6852 51.9902 11.6131 51.9526 11.5491C51.9151 11.4851 51.8618 11.4311 51.7975 11.392C51.7332 11.3529 51.66 11.3299 51.5843 11.325C51.5087 11.3202 51.4329 11.3336 51.3639 11.3641L49.5335 12.1998V12.8664C49.5589 13.3825 49.5146 13.8996 49.4016 14.4045C48.6618 14.8326 47.8086 15.0395 46.9486 14.9993C45.2712 14.9993 44.4904 14.02 44.4904 11.8255V10.1951C44.4933 10.1216 44.476 10.0488 44.4404 9.98392C44.4048 9.91908 44.3521 9.86459 44.2877 9.82601C44.2234 9.78743 44.1496 9.76614 44.074 9.76433C43.9984 9.76251 43.9237 9.78023 43.8574 9.81567L42.1852 10.636C40.7398 13.7688 36.5092 15.0147 30.7224 15.0147C25.1466 15.0147 22.6145 13.1638 22.6145 7.83656V2.37092C22.6144 2.29605 22.5946 2.22244 22.5571 2.15704C22.5196 2.09164 22.4656 2.03659 22.4002 1.99709C22.3347 1.95759 22.26 1.93494 22.1831 1.93128C22.1061 1.92761 22.0295 1.94304 21.9604 1.97613L20.1088 2.84776V9.95923C20.1088 13.656 18.1887 14.9378 13.1984 15.0147C13.1337 15.0169 13.0702 15.0323 13.0121 15.0601C12.9539 15.0878 12.9025 15.1272 12.8612 15.1756C12.8198 15.224 12.7895 15.2804 12.7721 15.341C12.7548 15.4017 12.7509 15.4652 12.7606 15.5274L13.1878 17.6193C17.5768 17.6193 20.1141 16.5016 21.2377 13.4663C22.2452 15.9786 24.9303 17.6193 30.1263 17.6193C35.6388 17.6193 40.3706 16.2452 42.2591 13.5637C42.4384 15.9478 43.6781 17.6193 46.342 17.6193C48.0986 17.6193 49.4649 17.1066 50.2931 15.9632C50.6676 16.9887 51.6593 17.6193 53.1838 17.6193C55.8531 17.6193 57.4039 15.712 57.4039 13.133V10.9847C57.4039 9.0876 57.2615 7.68274 56.9503 6.97005C56.9116 6.89561 56.8564 6.83044 56.7887 6.77923C56.7209 6.72802 56.6424 6.69205 56.5586 6.6739C56.4749 6.65576 56.388 6.65589 56.3043 6.6743C56.2206 6.69271 56.1422 6.72892 56.0746 6.78035L54.2705 7.84168C54.6767 8.60051 54.9194 9.95923 54.9194 11.7743H54.9299ZM10.9723 10.513V10.1643C10.9723 6.21635 10.065 4.22186 6.98958 4.22186C3.91418 4.22186 2.01514 6.61115 2.01514 10.3233V11.2051C2.01106 11.2809 2.0279 11.3564 2.06393 11.4237C2.09996 11.4911 2.15386 11.5478 2.22005 11.5881C2.28624 11.6284 2.3623 11.6507 2.44035 11.6528C2.51841 11.6549 2.59562 11.6366 2.66398 11.5999L4.50499 10.7181V9.40549C4.50499 7.93397 4.55247 7.3546 4.76348 6.87776C5.27041 6.60612 5.84103 6.46658 6.41987 6.47271C7.96548 6.47271 8.52991 7.49816 8.52991 10.754V12.4459C6.9854 12.3802 5.43807 12.4748 3.91418 12.7279C1.18694 13.2766 3.86144e-05 15.7274 3.86144e-05 18.9011V21.6186C-0.000954718 21.6917 0.0172314 21.7639 0.0528825 21.8283C0.0885335 21.8927 0.140475 21.9472 0.203809 21.9867C0.267144 22.0262 0.339785 22.0494 0.414884 22.0541C0.489983 22.0587 0.565066 22.0447 0.633054 22.0134L2.4688 21.1315V18.3474C2.44172 17.3433 2.51237 16.3391 2.6798 15.348C3.20731 15.1582 5.23296 15.0454 7.42741 14.9993C9.33173 14.9685 10.9881 13.1996 10.9881 10.513H10.9723ZM16.3054 12.7228V2.37092C16.3059 2.29785 16.2875 2.22583 16.2518 2.1615C16.2162 2.09716 16.1645 2.04257 16.1014 2.00274C16.0384 1.96292 15.9661 1.93914 15.8911 1.93359C15.8161 1.92804 15.7409 1.94091 15.6724 1.971L13.8156 2.83237V13.215C13.8156 13.2883 13.8346 13.3605 13.8709 13.4247C13.9072 13.489 13.9596 13.5433 14.0232 13.5827C14.0869 13.6221 14.1597 13.6452 14.235 13.6499C14.3103 13.6547 14.3855 13.6409 14.4539 13.6098L16.3054 12.7228ZM69.1042 10.9847C69.1042 9.0876 68.9565 7.68274 68.6505 6.97005C68.6111 6.89628 68.5556 6.8318 68.4878 6.78112C68.42 6.73045 68.3416 6.69482 68.2582 6.67674C68.1747 6.65865 68.0882 6.65856 68.0047 6.67646C67.9212 6.69436 67.8427 6.72982 67.7748 6.78035L65.9655 7.84168C66.4086 8.6159 66.6354 9.97461 66.6354 11.7897V14.6763C66.0313 14.9353 65.3752 15.0597 64.7153 15.0403C63.3015 15.0403 62.7318 14.4558 62.7318 12.7484V6.24711C62.7318 4.35004 62.5841 2.94517 62.2782 2.23249C62.2402 2.15736 62.1853 2.09147 62.1177 2.03971C62.05 1.98794 61.9712 1.95161 61.8872 1.9334C61.8031 1.91519 61.7159 1.91556 61.632 1.9345C61.5481 1.95343 61.4697 1.99043 61.4025 2.04278L59.5931 3.06823C60.0204 3.84244 60.2631 5.20116 60.2631 7.02133V13.1381C60.2631 16.0299 61.4658 17.6091 64.4251 17.6091C67.3001 17.6091 69.12 15.8709 69.12 13.1227V10.9847H69.1042ZM65.6595 19.378H63.6919C63.6332 19.3786 63.5753 19.3906 63.5215 19.4132C63.4676 19.4358 63.4189 19.4685 63.3782 19.5095C63.3375 19.5505 63.3055 19.599 63.2842 19.6521C63.2629 19.7052 63.2527 19.7619 63.2541 19.8189V22.08H65.6595C65.7186 22.0794 65.777 22.0672 65.8312 22.0443C65.8854 22.0214 65.9343 21.9882 65.9751 21.9466C66.0159 21.9051 66.0478 21.856 66.0687 21.8023C66.0897 21.7486 66.0995 21.6914 66.0974 21.6339V19.8035C66.0988 19.7465 66.0885 19.6898 66.0672 19.6367C66.0459 19.5836 66.0139 19.5352 65.9732 19.4942C65.9325 19.4531 65.8838 19.4204 65.8299 19.3978C65.7761 19.3752 65.7182 19.3632 65.6595 19.3626" fill="#535353"/>
</svg>
