<svg width="12" height="13" viewBox="0 0 12 13" fill="none" xmlns="http://www.w3.org/2000/svg">
<path d="M11.25 5.84421H6.75V1.34421C6.75 1.1453 6.67098 0.95453 6.53033 0.813878C6.38968 0.673226 6.19891 0.594208 6 0.594208C5.80109 0.594208 5.61032 0.673226 5.46967 0.813878C5.32902 0.95453 5.25 1.1453 5.25 1.34421V5.84421H0.75C0.551088 5.84421 0.360322 5.92323 0.21967 6.06388C0.0790178 6.20453 0 6.3953 0 6.59421C0 6.79312 0.0790178 6.98389 0.21967 7.12454C0.360322 7.26519 0.551088 7.34421 0.75 7.34421H5.25V11.8442C5.25 12.0431 5.32902 12.2339 5.46967 12.3745C5.61032 12.5152 5.80109 12.5942 6 12.5942C6.19891 12.5942 6.38968 12.5152 6.53033 12.3745C6.67098 12.2339 6.75 12.0431 6.75 11.8442V7.34421H11.25C11.4489 7.34421 11.6397 7.26519 11.7803 7.12454C11.921 6.98389 12 6.79312 12 6.59421C12 6.3953 11.921 6.20453 11.7803 6.06388C11.6397 5.92323 11.4489 5.84421 11.25 5.84421Z" fill="#3E3E3E"/>
</svg>
