<svg width="16" height="17" viewBox="0 0 16 17" fill="none" xmlns="http://www.w3.org/2000/svg">
<path d="M2.24549 13.544C1.86898 13.544 1.5497 13.4949 1.28765 13.3967C1.0256 13.3014 0.811749 13.1685 0.646086 12.9981C0.480423 12.8277 0.35994 12.6269 0.284639 12.3958C0.212349 12.1619 0.176205 11.9091 0.176205 11.6376C0.176205 11.499 0.179217 11.3271 0.185241 11.122C0.191265 10.914 0.194278 10.6743 0.194278 10.4028C0.194278 10.1313 0.192771 9.83376 0.189759 9.51026C0.186747 9.18386 0.177711 8.85746 0.16265 8.53107C0.150602 8.20467 0.131024 7.89127 0.103916 7.59088C0.0798194 7.29048 0.0451808 7.02907 0 6.80666L1.35091 6.41238C1.39006 6.60302 1.42169 6.82832 1.44579 7.08828C1.4729 7.34536 1.49398 7.61543 1.50904 7.8985C1.5241 8.18157 1.53464 8.46608 1.54067 8.75204C1.5497 9.03799 1.55573 9.30373 1.55874 9.54925C1.56175 9.76588 1.55723 9.99407 1.54518 10.2338C1.53615 10.4707 1.52862 10.6989 1.52259 10.9184C1.51657 11.135 1.51808 11.3314 1.52711 11.5076C1.53916 11.6838 1.56777 11.8181 1.61296 11.9106C1.64006 11.977 1.6732 12.0275 1.71235 12.0622C1.75452 12.0969 1.80272 12.1229 1.85693 12.1402C1.91115 12.1575 1.96988 12.1676 2.03314 12.1705C2.0994 12.1734 2.17169 12.1749 2.25001 12.1749H2.37199V13.544H2.24549Z" fill="#535353"/>
<path d="M6.11032 13.531C5.9296 13.531 5.74285 13.5122 5.55008 13.4747C5.35731 13.44 5.16755 13.3923 4.9808 13.3317C4.79706 13.271 4.61935 13.2017 4.44767 13.1237C4.27899 13.0428 4.12839 12.9605 3.99586 12.8768C3.89646 13.0038 3.78953 13.1107 3.67507 13.1974C3.56363 13.2811 3.44314 13.349 3.31363 13.401C3.18712 13.453 3.04857 13.4891 2.89796 13.5093C2.75037 13.5324 2.59073 13.544 2.41905 13.544H2.19314V12.1749H2.41905C2.61784 12.1749 2.78501 12.1359 2.92055 12.0579C3.0561 11.9799 3.17206 11.8802 3.26845 11.7589C3.36483 11.6347 3.44917 11.499 3.52146 11.3516C3.59676 11.2014 3.67357 11.0556 3.75188 10.914C3.84224 10.7379 3.94315 10.5617 4.05459 10.3855C4.16905 10.2093 4.30008 10.0504 4.44767 9.90886C4.59526 9.76733 4.76092 9.65323 4.94465 9.56658C5.1314 9.47704 5.34074 9.43227 5.57267 9.43227C5.88893 9.43227 6.16002 9.50303 6.38592 9.64457C6.61484 9.78322 6.80309 9.96663 6.95068 10.1948C7.09827 10.4201 7.20671 10.6772 7.27599 10.966C7.34828 11.252 7.38442 11.5408 7.38442 11.8326C7.38442 12.0781 7.34677 12.3048 7.27147 12.5128C7.19617 12.7208 7.09827 12.8999 6.97779 13.0501C6.85731 13.2003 6.72026 13.3172 6.56665 13.401C6.41605 13.4877 6.26394 13.531 6.11032 13.531ZM5.53201 10.7537C5.44466 10.7537 5.36333 10.787 5.28803 10.8534C5.21273 10.9169 5.14194 10.9964 5.07568 11.0917C5.00941 11.187 4.94917 11.291 4.89496 11.4036C4.84375 11.5163 4.79706 11.6203 4.7549 11.7156C4.85429 11.7763 4.96725 11.8326 5.09375 11.8846C5.22026 11.9366 5.35128 11.9828 5.48683 12.0232C5.62237 12.0608 5.75942 12.0925 5.89797 12.1185C6.03653 12.1445 6.16906 12.1633 6.29556 12.1749C6.31062 11.9987 6.30159 11.8254 6.26845 11.6549C6.23532 11.4845 6.18261 11.3329 6.11032 11.2C6.04104 11.0671 5.95671 10.9603 5.85731 10.8794C5.75791 10.7956 5.64948 10.7537 5.53201 10.7537Z" fill="#535353"/>
<path d="M7.67684 15.2641C8.10154 15.1832 8.48859 15.0806 8.83799 14.9564C9.18739 14.8351 9.49311 14.6979 9.75516 14.5448C10.0202 14.3946 10.2386 14.2343 10.4103 14.0639C10.585 13.8935 10.7085 13.7202 10.7808 13.544C10.6512 13.544 10.5142 13.5411 10.3696 13.5353C10.225 13.5324 10.1061 13.5281 10.0127 13.5223C9.7145 13.4992 9.44341 13.4443 9.19944 13.3577C8.95546 13.2739 8.74462 13.1584 8.56691 13.0111C8.39221 12.8609 8.25666 12.6789 8.16028 12.4651C8.06389 12.2514 8.0157 12.0059 8.0157 11.7286C8.0157 11.5524 8.03528 11.3719 8.07443 11.187C8.11359 11.0021 8.16931 10.8216 8.2416 10.6454C8.31691 10.4692 8.40877 10.3031 8.51721 10.1472C8.62865 9.99118 8.75365 9.85398 8.89221 9.73556C9.03076 9.61713 9.18287 9.5247 9.34853 9.45826C9.51721 9.38894 9.69793 9.35428 9.8907 9.35428C10.1196 9.35428 10.3305 9.39472 10.5232 9.47559C10.716 9.55358 10.8922 9.66046 11.0519 9.79621C11.2145 9.93197 11.3576 10.0923 11.4811 10.2771C11.6076 10.4591 11.716 10.6555 11.8064 10.8664C11.8997 11.0744 11.975 11.291 12.0323 11.5163C12.0925 11.7387 12.1347 11.9582 12.1588 12.1749H12.3531V13.544H12.0639C11.9464 13.9686 11.7582 14.3528 11.4991 14.6965C11.2431 15.0431 10.9359 15.3449 10.5775 15.602C10.219 15.8591 9.81992 16.0714 9.38016 16.2389C8.94341 16.4065 8.48709 16.5249 8.01118 16.5942L7.67684 15.2641ZM9.8907 10.7277C9.82745 10.7162 9.75516 10.7379 9.67384 10.7927C9.59251 10.8447 9.51721 10.9169 9.44793 11.0094C9.37865 11.0989 9.31992 11.1986 9.27173 11.3083C9.22353 11.4181 9.20094 11.5235 9.20395 11.6246C9.20697 11.7228 9.2401 11.8037 9.30335 11.8672C9.36661 11.9308 9.44793 11.9842 9.54733 12.0275C9.64673 12.068 9.75817 12.0983 9.88167 12.1185C10.0082 12.1388 10.1332 12.1532 10.2567 12.1619C10.3802 12.1705 10.4961 12.1749 10.6046 12.1749H10.8847C10.8395 11.9958 10.7853 11.8239 10.722 11.6593C10.6618 11.4946 10.591 11.3473 10.5097 11.2173C10.4284 11.0874 10.3365 10.979 10.2341 10.8924C10.1317 10.8057 10.0172 10.7508 9.8907 10.7277Z" fill="#535353"/>
<path d="M12.1687 12.1749H13.253C13.3825 12.1749 13.5256 12.1691 13.6822 12.1575C13.8388 12.1431 13.9849 12.1156 14.1205 12.0752C14.259 12.0348 14.3735 11.9756 14.4639 11.8976C14.5572 11.8167 14.6039 11.7113 14.6039 11.5813C14.6039 11.512 14.5813 11.4094 14.5361 11.2737C14.494 11.135 14.4367 10.9819 14.3645 10.8144C14.2952 10.644 14.2154 10.4663 14.125 10.2815C14.0376 10.0966 13.9503 9.92042 13.8629 9.75289L15.1551 9.13764C15.2395 9.31962 15.3223 9.51314 15.4036 9.71823C15.488 9.92331 15.5633 10.1313 15.6295 10.3421C15.6958 10.553 15.7485 10.7638 15.7877 10.9747C15.8298 11.1827 15.8509 11.382 15.8509 11.5726C15.8509 11.9308 15.7816 12.2355 15.6431 12.4868C15.5075 12.7352 15.3223 12.9389 15.0873 13.0977C14.8524 13.2537 14.5768 13.3663 14.2605 13.4357C13.9443 13.5079 13.6054 13.544 13.244 13.544H12.1687V12.1749ZM14.2741 7.70786L13.4247 8.5224L12.5482 7.68619L13.4157 6.84999L14.2741 7.6732L15.1235 6.85865L16 7.69486L15.1325 8.53107L14.2741 7.70786Z" fill="#535353"/>
<path d="M5.82052 7.86693C5.31213 7.86693 4.84955 7.80217 4.43279 7.67264C4.01603 7.54312 3.65839 7.34882 3.35986 7.08977C3.06428 6.83365 2.83373 6.51277 2.66821 6.12713C2.50564 5.74444 2.42436 5.29845 2.42436 4.78916C2.42436 4.30049 2.50121 3.81328 2.65491 3.32755C2.81156 2.84182 3.04211 2.36639 3.34655 1.90127L4.34412 2.61662C4.285 2.6961 4.21554 2.81533 4.13574 2.97429C4.05593 3.13326 3.97908 3.31431 3.90519 3.51743C3.8313 3.72055 3.76923 3.93692 3.71898 4.16654C3.66873 4.39322 3.64361 4.61253 3.64361 4.82449C3.64361 5.06883 3.69829 5.28961 3.80765 5.48685C3.91997 5.68409 4.06776 5.85336 4.25101 5.99466C4.43723 6.13597 4.65004 6.24636 4.88946 6.32584C5.13183 6.40532 5.38307 6.44801 5.64317 6.4539C5.95648 6.45979 6.25797 6.41857 6.54763 6.33026C6.83729 6.24489 7.09001 6.12272 7.30578 5.96375C7.52451 5.80773 7.69594 5.62079 7.82008 5.40295C7.94422 5.18805 8.00038 4.95402 7.98856 4.70085C7.98265 4.57426 7.959 4.43149 7.91762 4.27252C7.87624 4.11356 7.82599 3.95164 7.76688 3.78679C7.71072 3.61899 7.64717 3.45414 7.57623 3.29223C7.50825 3.12737 7.44322 2.97724 7.38115 2.84182C7.32204 2.7064 7.27031 2.59012 7.22598 2.49298C7.18164 2.39583 7.15356 2.32959 7.14174 2.29427L8.34768 1.62749C8.35951 1.63927 8.38906 1.69667 8.43636 1.79971C8.48365 1.90274 8.53833 2.03668 8.6004 2.20154C8.66543 2.36345 8.73341 2.54891 8.80435 2.75792C8.87824 2.96693 8.94474 3.1833 9.00386 3.40704C9.06297 3.63077 9.11174 3.85303 9.15017 4.07381C9.19155 4.2946 9.21224 4.49772 9.21224 4.68319C9.21224 4.94519 9.18268 5.20571 9.12357 5.46477C9.06445 5.72383 8.97282 5.97111 8.84868 6.20662C8.7275 6.44507 8.5738 6.66438 8.38759 6.86456C8.20433 7.06769 7.98708 7.24284 7.73584 7.39004C7.4846 7.54017 7.19937 7.65645 6.88015 7.73888C6.56093 7.82425 6.20772 7.86693 5.82052 7.86693ZM5.85155 2.5548L4.86729 1.5745L5.85155 0.594208L6.83582 1.5745L5.85155 2.5548Z" fill="#535353"/>
</svg>
