<svg width="14" height="16" viewBox="0 0 14 16" fill="none" xmlns="http://www.w3.org/2000/svg">
<path d="M5.5 12.0942C5.69891 12.0942 5.88968 12.0152 6.03033 11.8745C6.17098 11.7339 6.25 11.5431 6.25 11.3442V6.84421C6.25 6.6453 6.17098 6.45453 6.03033 6.31388C5.88968 6.17323 5.69891 6.09421 5.5 6.09421C5.30109 6.09421 5.11032 6.17323 4.96967 6.31388C4.82902 6.45453 4.75 6.6453 4.75 6.84421V11.3442C4.75 11.5431 4.82902 11.7339 4.96967 11.8745C5.11032 12.0152 5.30109 12.0942 5.5 12.0942ZM13 3.09421H10V2.34421C10 1.74747 9.76295 1.17517 9.34099 0.753218C8.91903 0.331261 8.34674 0.0942078 7.75 0.0942078H6.25C5.65326 0.0942078 5.08097 0.331261 4.65901 0.753218C4.23705 1.17517 4 1.74747 4 2.34421V3.09421H1C0.801088 3.09421 0.610322 3.17323 0.46967 3.31388C0.329018 3.45453 0.25 3.6453 0.25 3.84421C0.25 4.04312 0.329018 4.23389 0.46967 4.37454C0.610322 4.51519 0.801088 4.59421 1 4.59421H1.75V12.8442C1.75 13.4409 1.98705 14.0132 2.40901 14.4352C2.83097 14.8572 3.40326 15.0942 4 15.0942H10C10.5967 15.0942 11.169 14.8572 11.591 14.4352C12.0129 14.0132 12.25 13.4409 12.25 12.8442V4.59421H13C13.1989 4.59421 13.3897 4.51519 13.5303 4.37454C13.671 4.23389 13.75 4.04312 13.75 3.84421C13.75 3.6453 13.671 3.45453 13.5303 3.31388C13.3897 3.17323 13.1989 3.09421 13 3.09421ZM5.5 2.34421C5.5 2.1453 5.57902 1.95453 5.71967 1.81388C5.86032 1.67323 6.05109 1.59421 6.25 1.59421H7.75C7.94891 1.59421 8.13968 1.67323 8.28033 1.81388C8.42098 1.95453 8.5 2.1453 8.5 2.34421V3.09421H5.5V2.34421ZM10.75 12.8442C10.75 13.0431 10.671 13.2339 10.5303 13.3745C10.3897 13.5152 10.1989 13.5942 10 13.5942H4C3.80109 13.5942 3.61032 13.5152 3.46967 13.3745C3.32902 13.2339 3.25 13.0431 3.25 12.8442V4.59421H10.75V12.8442ZM8.5 12.0942C8.69891 12.0942 8.88968 12.0152 9.03033 11.8745C9.17098 11.7339 9.25 11.5431 9.25 11.3442V6.84421C9.25 6.6453 9.17098 6.45453 9.03033 6.31388C8.88968 6.17323 8.69891 6.09421 8.5 6.09421C8.30109 6.09421 8.11032 6.17323 7.96967 6.31388C7.82902 6.45453 7.75 6.6453 7.75 6.84421V11.3442C7.75 11.5431 7.82902 11.7339 7.96967 11.8745C8.11032 12.0152 8.30109 12.0942 8.5 12.0942Z" fill="#535353"/>
</svg>
