<svg xmlns="http://www.w3.org/2000/svg" width="303" height="183" fill="none">
  <path stroke="#EEEEEE" stroke-dasharray="3 6" stroke-linecap="round" stroke-linejoin="round" stroke-width="2" d="M1.45623 87.5039C10.2274 69.5311 29.896 57.4534 49.8889 57.7618c10.2703.1594 20.8435 3.6254 27.8125 11.1632 6.9691 7.5379 9.4623 19.5518 4.3537 28.4611-3.9709 6.9109-14.0444 10.9349-20.2002 5.8479-4.0028-3.3016-4.9544-9.3245-3.3809-14.2682 1.5735-4.9437 5.2202-8.9572 9.1699-12.3221 15.8306-13.4863 38.4181-18.6055 58.5111-13.2418 20.094 5.3637 37.148 21.0348 44.159 40.6131 13.372 37.339 117.77 45.356 131.214-46.4384"/>
  <path stroke="#3E3E3E" stroke-linecap="round" stroke-linejoin="round" stroke-width="3" d="M105.319 79.6951l24.597-39.3542M203.705 79.6951l-24.596-39.3542"/>
  <path fill="white" stroke="#3E3E3E" stroke-linecap="round" stroke-linejoin="round" stroke-width="3" d="M200.005 168.242h-90.987c-2.13-.039-4.185-.795-5.831-2.148-1.647-1.352-2.788-3.221-3.2402-5.303L85.9236 91.9212c-.3754-1.4138-.4274-2.894-.152-4.3306.2753-1.4367.871-2.7928 1.7426-3.9675.8716-1.1747 1.9967-2.1379 3.2918-2.818 1.2951-.68 2.7268-1.0594 4.1887-1.11H214.028c1.462.0506 2.894.43 4.189 1.11 1.295.6801 2.42 1.6433 3.292 2.818.871 1.1747 1.467 2.5308 1.742 3.9675.276 1.4366.224 2.9168-.152 4.3306l-14.023 68.8698c-.452 2.082-1.593 3.951-3.24 5.303-1.646 1.353-3.701 2.109-5.831 2.148z"/>
  <path fill="#3E3E3E" d="M133.505 141.253c12.389-12.702 32.55-12.702 44.944 0 .914.936 2.393 2.037 3.306 1.101.913-.935.913-1.353 0-2.287-7.107-7.284-16.443-10.927-25.779-10.927-9.334 0-18.672 3.643-25.777 10.927-.912.936-.912 1.352 0 2.287.914.936 2.392-.165 3.306-1.101zM144.465 112.692c-.448 0-.896-.181-1.255-.545-2.959-2.997-5.828-4.359-8.608-4.177-3.945.363-6.545 3.905-6.545 3.905-.538.817-1.704.999-2.511.454-.807-.545-.986-1.726-.448-2.543.179-.182 3.497-4.995 9.146-5.449 3.855-.363 7.711 1.453 11.477 5.177.717.726.717 1.816 0 2.543-.359.454-.807.635-1.256.635zM182.497 112.693c-.538 0-1.076-.273-1.434-.727-.09-.091-2.601-3.633-6.546-3.905-2.78-.182-5.649 1.181-8.608 4.178-.717.726-1.793.726-2.51 0-.718-.727-.718-1.817 0-2.543 3.766-3.815 7.621-5.54 11.477-5.177 5.649.454 9.056 5.267 9.145 5.449.538.817.359 1.907-.448 2.543-.359.091-.717.182-1.076.182z"/>
  <path fill="#3E3E3E" stroke="white" stroke-width="2" d="M105.266 168.69l-.348.937 1.068.396.255-1.11-.975-.223zm0 0l-.348.937h-.001l-.002-.001-.007-.003-.023-.008c-.008-.003-.018-.007-.029-.011-.014-.006-.032-.013-.052-.021-.069-.027-.168-.067-.295-.12-.252-.105-.613-.263-1.056-.474-.885-.423-2.105-1.063-3.453-1.939-2.6841-1.743-5.9391-4.461-8.0384-8.309l.8653-.472-.8653.472c-2.0997-3.849-2.6085-8.033-2.6074-11.211.0005-1.596.1296-2.956.259-3.92.0648-.483.1299-.868.1794-1.134.0247-.134.0456-.238.0607-.31.0075-.037.0136-.065.0179-.085l.0053-.023.0016-.008.0005-.002.0002-.001c.0001 0 .0002 0 .9749.223m14.4123 26.42c.975.223.975.223.975.222h0l.001-.003.001-.007.006-.024c.004-.02.01-.048.017-.084.016-.072.036-.176.061-.31.05-.267.115-.652.18-1.134.129-.964.258-2.325.259-3.92.001-3.179-.508-7.362-2.608-11.211-2.099-3.849-5.3542-6.566-8.0387-8.31-1.348-.875-2.5676-1.516-3.4529-1.938-.4431-.212-.8036-.369-1.056-.475-.1263-.052-.2256-.092-.2948-.12-.0346-.013-.0617-.024-.0809-.031l-.0227-.009-.0069-.002-.0022-.001h-.0009c-.0003 0-.0006-.001-.3483.937m0 0l-.9747-.223.2545-1.111 1.0679.396-.3477.938zm.9749.223s0 0 0 0h0z"/>
  <path fill="#DC3755" d="M95.8719 155.706c7.1431 4.255 9.8951 12.707 9.8951 12.707s-8.8311 1.553-15.9747-2.702c-7.1436-4.255-9.8948-12.707-9.8948-12.707s8.8308-1.553 15.9744 2.702zM184.349 20.4279c-.193 1.8932 1.058 3.5713 2.793 3.7482 1.736.1769 3.299-1.2144 3.492-3.1076.193-1.8931-1.057-3.5713-2.793-3.7482-1.735-.1769-3.299 1.2144-3.492 3.1076z"/>
  <path fill="#F2F2F2" d="M23.0132 85.923c-1.664 1.6143-1.8134 4.1594-.3337 5.6848 1.4798 1.5253 4.0283 1.4532 5.6923-.161 1.664-1.6143 1.8134-4.1594.3337-5.6848-1.4798-1.5253-4.0283-1.4533-5.6923.161zM231.283 3.78846c-.709 2.09233.413 4.36312 2.505 5.07196 2.092.70884 4.363-.4127 5.072-2.50503.709-2.09233-.413-4.36312-2.505-5.07196-2.092-.708842-4.363.4127-5.072 2.50503z"/>
  <path fill="#DC3755" d="M54.5227 20.3479c-.8412 1.2966-.3407 3.1149 1.118 4.0612 1.4587.9464 3.3231.6624 4.1643-.6342.8412-1.2966.3406-3.1148-1.118-4.0612-1.4587-.9463-3.3231-.6624-4.1643.6342zM267.344 54.9771c.204.1181.401.2884.536.4793l1.71 2.316c.283.3897.362.8444.193 1.1984l-.989 2.069c-.169.354-.554.5409-1.006.5053l-2.705-.236c-.452-.0356-.915-.3034-1.212-.701l-1.711-2.3159c-.283-.3897-.361-.8445-.192-1.1985l.988-2.0689c.17-.3541.554-.541 1.007-.5054l2.704.236c.233.0218.472.1035.677.2217zm1.226 3.2927l-1.702-2.297-2.685-.2392-.984 2.0579 1.702 2.297 2.686.2392.983-2.0579z"/>
  <path fill="#F2F2F2" d="M252.347 144.976c-.744 2.195.284 4.528 2.297 5.21 2.013.682 4.248-.545 4.991-2.741.744-2.196-.284-4.529-2.297-5.21-2.013-.682-4.248.545-4.991 2.741z"/>
</svg>
